# xmcd
#
# Track frame offsets: 
#        150
#        22296
#        37156
#        54476
#        70702
#        84302
#        103489
#        116931
#        132202
#        151799
#        167307
#        181948
#        194921
#        213126
#        228043
#
# Disc length: 3414 seconds
#
# Revision: 0
# Processed by: cddbd v1.5.1PL2 Copyright (c) Steve Scherf et al.
# Submitted via: ExactAudioCopy v0.95a5
#
DISCID=cd0d540f
DTITLE=Juke Joint All Stars - Jumpin' Live
DYEAR=2005
DGENRE=Blues
TTITLE0=Sittin' On It All the Time
TTITLE1=Mr Dollar
TTITLE2=Keep On Churnin'
TTITLE3=Christina
TTITLE4=Grandma Plays The Numbers
TTITLE5=Conjured
TTITLE6=Git to Gittin'
TTITLE7=The Deacon Don't Like It
TTITLE8=Keep A Talkin'
TTITLE9=Man's Best Friend
TTITLE10=Don't Take My Whiskey Away From Me
TTITLE11=Lovin' Machine
TTITLE12=The Comeback
TTITLE13=Fishtail Blues
TTITLE14=Bloodshot Eyes
EXTD=
EXTT0=
EXTT1=
EXTT2=
EXTT3=
EXTT4=
EXTT5=
EXTT6=
EXTT7=
EXTT8=
EXTT9=
EXTT10=
EXTT11=
EXTT12=
EXTT13=
EXTT14=
PLAYORDER=
